<?xml version="1.0" encoding="utf-8"?>
<!-- Generator: Adobe Illustrator 27.6.1, SVG Export Plug-In . SVG Version: 6.00 Build 0)  -->
<svg version="1.1" id="Layer_1" xmlns="http://www.w3.org/2000/svg" xmlns:xlink="http://www.w3.org/1999/xlink" x="0px" y="0px"
	 viewBox="0 0 512 512" style="enable-background:new 0 0 512 512;" xml:space="preserve">
<style type="text/css">
	.st0{fill:none;}
	.st1{fill:#FFFFFF;}
	.st2{fill:#A55FBF;}
</style>
<path class="st0" d="M206.7,752.7c-150.7,0-301.1,0-451.4,0c0-331.2,0-662.1,0-993.3c331.2,0,662.1,0,993.3,0
	c0,331.2,0,662.1,0,993.3C567.9,752.7,387.3,752.7,206.7,752.7 M452.3,235c0,15.9,0,31.6,0,47.5c0,5.4,0,10.7,0,16.5
	c0,5.4,0,10.9,0,16.3c0,3.7,0,7.4-0.4,10.9c-1,7.2-7.6,13.8-14,14.6c0-7.2,0-14.6,0-22.3c0-31,0-61.9,0-92.9c0-0.4,0-0.8,0-1.2
	c-0.4-2.7-2.5-4.5-5-4.5s-4.5,1.7-4.9,4.5c-0.2,1,0,1.9,0,2.9c0,32.8,0,65.8,0,98.6c0,2.3,0.2,4.7,0,7.4c0,27,0,53.7,0,80.7
	c0,17.8,0,35.5,0,53.4c0,3.7,1.9,5.8,5,6c3.1,0,5-2.3,5.2-6c0-0.6,0-1.4,0-1.9c0-36.9,0-73.7,0-110.8c0-1,0-2.1,0-3.1
	c1.2-0.2,1.9-0.4,2.9-0.8c12-3.1,21.1-13.8,21.5-26c0.4-14.4,0-28.7,0-43.5c0-20.8,0-41.5,0-62.7c0-8.5,0.4-17.1-1.6-25.4
	c-3.9-18.6-14-32.8-30.7-42.9c-1.9-1.2-4.1-2.3-6-3.3c-18.8-8.9-38.8-10.9-59.6-8.7c-11.6,1.4-22.7,4.3-33.2,9.7
	c-22.9,12.2-35.3,31.4-36.1,57.4c-0.4,16.9-0.2,34-0.2,50.8c0,1,0.2,1.9,0,3.5c0,21-0.2,41.9,0,63.1c0,9.3,3.5,17.1,11.3,22.9
	c3.3,1.6,6.4,3.5,9.9,4.9c1.9,0.8,2.5,1.4,2.5,3.3c0,21.3,0,42.9,0,64.2c0,0.8,0,1.7,0,2.5c0.4,2.5,2.5,4.3,5,4.3s4.7-1.7,5-4.3
	c0.2-1,0.2-1.9,0.2-2.9c0-33.2,0-66.3,0-99.5c0-1,0-1.7,0-3.1c0-29.9,0-59.6,0-89.4c0-0.6,0-1-0.2-1.6c-0.4-2.7-2.3-4.3-5-4.3
	c-3.3,0-5,2.1-5,6c0,33.4,0,66.7,0,100.1c0,0.8,0,1.6,0,2.7c0,3.9,0,7.8,0,11.6c-0.2,0.2-0.4,0.4-0.6,0.6c-2.5-1.6-4.9-3.3-7.6-5
	c-3.9-4.1-5.4-8.9-5.4-14.4c0-20.8,0-41.3,0-62.1c0-4.7,0-9.5,0-14.6c0-13.2-0.2-26.4,0.2-39.4c0.6-18.4,8.1-33.4,23.3-44
	c9.9-7,21-10.5,33.2-12.6c23.1-3.1,45.2-0.8,65.8,11.8c5.6,3.9,10.5,8.3,14.4,14c7,10.1,9.9,21.3,10.1,33.4
	C452.5,216.8,452.5,225.7,452.3,235 M205.2,167c2.7,3.9,6,7.6,7.8,12c7.2,17.3,13.8,34.7,20.6,52.2c4.3,10.9,8.5,21.7,13,33
	c3.3,8.7,6.8,17.3,10.1,26c3.5,9.3-1.4,19.4-10.9,22.1c-6.2,1.9-14.7-0.2-19.6-9.1c-0.8-2.1-1.7-4.3-2.5-6.4
	c-5.4-14-10.9-27.9-16.5-41.9c-1.2-3.1-4.1-4.3-6.8-3.1c-2.5,1.2-3.7,3.9-2.5,6.8c1,2.9,2.1,5.6,3.3,8.5
	c6.2,15.7,12.2,31.4,18.4,47.3c8.3,21.5,16.9,43.1,25.4,65.2c-1.6,0-2.5,0-3.5,0c-15.5,0-31,0-46.4,0c-5.2,0-6.8,1.6-6.8,6.8
	c0,26.4,0,53,0,79.3c0,0.8,0,1.7,0.2,2.5c0.4,2.3,2.3,4.1,4.7,4.1c2.3,0.2,4.5-1.4,5-3.5c0.2-1,0.4-2.1,0.4-3.1
	c0-24.3,0-48.7,0-72.9c0-1,0-1.9,0-3.1c1.4,0,2.3,0,3.3,0c16.3,0,32.6,0,48.9,0c6,0,8-2.9,5.8-8.5c-7.4-18.6-14.6-37.4-21.9-56.1
	c-0.4-0.8-0.6-1.6-0.8-2.7c1.2,0.2,1.9,0.2,2.5,0.4c19.8,3.5,36.3-14.7,30.3-33.8c-3.5-10.7-8.1-21-12.2-31.8
	c-0.6-1.6-1.2-3.1-1.7-4.7c-10.1-25.8-20-51.6-30.3-77.4c-2.5-6.6-6.8-12-12-17.3c-3.3-2.7-6.4-5.8-9.9-8.1
	c-11.4-8.1-24.4-11.4-38.2-11.8c-8-0.2-15.9,0.4-24.3,0.6c-7.4,1-14.4,2.9-21,6.2c-14.6,7.2-25.6,17.8-31.6,33.2
	c-8.7,22.1-17.3,44.4-26,66.7C54,258.7,48.4,272.7,43,286.8c-4.7,12.4,0.2,26.8,11.3,32.8c6.6,3.7,13.6,4.5,21.1,2.7
	c-0.6,1.4-0.8,2.3-1.2,3.3c-1.7,4.7-3.7,9.3-5.4,14.2c-5.4,14.2-11.1,28.1-16.5,42.3c-1.9,4.7,0.4,8,5.4,8c6.8,0,13.6,0,20.8,0
	c10.5,0,21.1,0,32,0c0,1.4,0,2.3,0,3.5c0,8.3,0,16.5,0,24.8c0,3.3,2.1,5.2,5,5.2s5-1.9,5-5c0-11.3,0-22.3,0-33.6
	c0-2.9-1.9-4.9-4.9-4.9c-11.1,0-22.1,0-33.8,0c-5.8,0-11.8,0-17.8,0c0,0,0,0,0-0.4c0.4-1.2,0.8-2.3,1.4-3.5
	c12.8-32.8,25.6-65.8,38.4-98.6c2.5-6.4,5-12.6,7.4-19c1-2.9-0.2-5.6-2.7-6.6c-2.7-1-5.4,0.2-6.6,3.1c-0.2,0.6-0.4,1.2-0.6,1.6
	c-6,15.3-11.8,30.5-17.8,45.8c-2.5,6.2-7,9.9-13.6,11.1c-4.1,0.6-7.6-0.8-11.3-2.7c-7.6-6.8-8.9-12.4-5.2-22.1
	c13.8-35.3,27.5-70.4,41.1-105.7c3.9-10.3,10.7-18,19.6-24.3c6-4.3,13-6.8,20.4-8.9c11.6-2.3,23.3-2.1,34.9-0.8
	C183.4,150.1,195.3,156.5,205.2,167 M135.3,127.2c8.9,4.1,18.2,5.2,27.7,3.3c24.4-4.9,40.2-26.2,37.4-51.2
	c-1.7-15.1-9.5-26.8-23.1-34.5c-1.9-1-3.7-2.1-5.6-2.9c-6.8-2.7-14-3.9-21.3-3.1c-30.3,2.9-49.9,33-39.8,61.7
	C115.1,112.4,123.1,121.6,135.3,127.2 M372.4,130.9c7.6,1.2,14.9,0.4,22.1-2.3c22.9-8.3,35.5-32.4,29.1-56.1
	c-3.7-13.4-12-23.3-24.8-29.7c-8.5-3.9-17.3-5.4-26.6-3.9c-30.7,4.7-48.3,36.9-35.3,65.2C343.7,119.2,355.5,128.2,372.4,130.9
	 M374.7,401.7c0,18.2,0,36.5,0,54.5c0,4.1-0.2,8.1,0,12.2c0,1.6,0.8,3.3,1.9,4.3c2.9,2.1,6.2-0.2,6.2-4.1c0-35.1,0-70.2,0-105.5
	c0-0.4,0-0.8,0-1.2c-0.4-2.1-1.6-3.3-3.7-3.5s-3.5,0.8-4.3,2.7c-0.4,1-0.4,1.9-0.4,2.9C374.7,376.3,374.7,388.7,374.7,401.7z"/>
<path class="st1" d="M226.3,303.5c4.7,8.7,13.2,10.7,19.6,8.7c9.5-2.7,14.4-12.8,10.9-22.1c-3.3-8.7-6.8-17.3-9.9-26.2
	c1-0.6,2.1-0.8,2.3-1.2c1-2.7,3.1-4.1,5.2-5.4c4.1,10.5,8.9,20.8,12.2,31.4c6,19.2-10.5,37.2-30.3,33.8c-0.8-0.2-1.4-0.2-2.5-0.4
	c0.4,1,0.6,1.9,0.8,2.7c7.4,18.6,14.6,37.4,21.9,56.1c2.1,5.6,0.2,8.5-5.8,8.5c-16.3,0-32.6,0-48.9,0c-1,0-1.9,0-3.3,0
	c0,1.2,0,2.1,0,3.1c0,24.3,0,48.7,0,72.9c0,1,0,2.1-0.4,3.1c-0.6,2.3-2.7,3.7-5,3.5s-4.3-1.7-4.7-4.1c-0.2-0.8-0.2-1.6-0.2-2.5
	c0-26.4,0-53,0-79.3c0-5.4,1.6-6.8,6.8-6.8c15.5,0,31,0,46.4,0c1,0,1.9,0,3.5,0c-8.5-21.9-17.1-43.5-25.2-65.4
	c0.6-1.6,0.8-2.7,1.2-4.1c0.4-1.2,0.2-2.5,1-3.3C223.2,305.5,224.8,304.5,226.3,303.5z"/>
<path class="st1" d="M438,319.1c0,7.2,0,14.6,0,21.7c6.6-0.6,13-7.2,14-14.6c0.6-3.5,0.4-7.2,0.4-10.9c0-5.4,0-10.9,0.2-16.7
	c2.9-5,5.4-9.7,8.1-14.4c0.6-1,1-1.7,1.6-2.7c0,14.4,0.2,28.7,0,42.9c-0.2,12.2-9.3,23.1-21.5,26c-0.8,0.2-1.7,0.4-2.9,0.8
	c0,1.2,0,2.1,0,3.1c0,36.9,0,73.7,0,110.8c0,0.6,0,1.4,0,1.9c0,3.7-2.1,6-5.2,6s-4.9-2.3-5-6c0-17.8,0-35.5,0-53.4
	c0-27,0-53.7,0.2-80.9c0.6-1,1.2-1.7,1-2.1c-0.8-1.9,0-2.9,1.7-3.5c2.1-1,3.1-2.5,3.3-5c0-1.7,0.2-3.5,0.6-5
	c0.2-0.8,1.2-1.6,1.6-2.1C437,316.7,437.4,317.9,438,319.1z"/>
<path class="st1" d="M134.2,149.1c-7.2,2.1-14,4.7-20,8.9c-8.7,6.2-15.5,14-19.6,24.3C81,217.6,67,252.7,53.4,288
	c-3.7,9.7-2.3,15.3,5.2,22.3c-2.3,2.7-4.1,5.2-4.5,8.5c-10.9-5.6-15.7-20.2-11.1-32.6c5.4-14.2,11.1-28.1,16.5-42.3
	c8.7-22.3,17.3-44.4,26-66.7c6-15.3,17.1-25.8,31.6-33.2c6.6-3.3,13.8-5.2,21.1-6c-0.2,1.9-0.8,3.3-2.9,3.9
	c-0.8,0.2-1.2,1.7-1.4,2.7C134,146.4,134.2,147.7,134.2,149.1z"/>
<path class="st1" d="M54.2,319.2c0.2-3.5,2.1-6,4.3-8.5c3.7,1.6,7.4,2.9,11.3,2.1c6.6-1.2,11.1-4.7,13.6-11.1
	c6-15.3,11.8-30.5,17.8-45.8c0.2-0.6,0.4-1.2,0.6-1.6c1.4-2.9,3.9-4.1,6.6-3.1c2.5,1,3.7,3.7,2.7,6.6c-2.3,6.4-4.9,12.6-7.4,19
	c-12.8,32.8-25.6,65.8-38.4,98.6c-0.4,1.2-0.8,2.3-1.2,3.7c0,0.2,0,0.2,0,0.2c5.8,0,11.8,0,17.8,0.2c-0.6,2.9-0.8,5.8-3.5,7.8
	c-0.4,0.4-0.4,1.4-0.6,1.9c-6.8,0-13.6,0-20.4,0c-5,0-7.2-3.1-5.4-8c5.4-14.2,11.1-28.1,16.5-42.3c1.7-4.7,3.7-9.3,5.4-14.2
	c0.4-1,0.6-1.7,1.2-3.3C67.8,323.9,60.8,323.1,54.2,319.2z"/>
<path class="st1" d="M361.7,148.9c-11.8,2.1-22.9,5.8-32.8,12.6c-15.3,10.7-22.9,25.6-23.3,44c-0.4,13.2-0.2,26.4-0.4,39.6
	c-2.1,0.2-3.3,0.6-3.5,2.9c0,1.4-1.4,2.3-2.1,3.7s-1.2,2.7-1.9,4.1c-0.6,1.2-1.6,2.3-2.3,3.5c0-1-0.2-1.9-0.2-2.9
	c0-16.9-0.2-34,0.2-50.8c0.8-26,13.2-45.2,36.1-57.4c10.3-5.6,21.5-8.3,33.4-9.5c0,1.6,0.2,2.9-0.4,4.1
	C363.9,144.8,362.7,146.8,361.7,148.9z"/>
<path class="st1" d="M372,130.7c-16.5-2.7-28.3-11.4-35.3-26.6c-13-28.3,4.7-60.5,35.3-65.2c9.3-1.4,18,0,26.6,4.3
	c-0.6,2.1-1.4,4.1-1.9,5.8c-0.4,1.2-1,2.1-1.6,3.3c-6-2.7-12-4.1-18.4-3.7c-14.9,1-27.7,10.9-32.4,24.8c-4.5,14-0.4,29.3,11.3,39
	c5.8,4.9,12.6,7.4,20,8.7c-0.4,1.2-0.6,2.1-1,2.9C373.7,126.4,372.8,128.5,372,130.7z"/>
<path class="st1" d="M135.1,126.8c-11.8-5.4-20-14.4-24.3-26.6c-10.1-28.7,9.3-58.8,39.8-61.7c7.4-0.8,14.6,0.4,21.3,3.1
	c1.9,0.8,3.7,1.9,5.8,3.1c-1.6,2.9-3.1,5.6-5,8.3c-6.4-3.5-13.2-5-20.4-4.7c-25,1.6-41.1,27.7-31,50.6c3.7,8.3,9.9,14.4,17.8,18.8
	C137.6,121.2,136.3,123.9,135.1,126.8z"/>
<path class="st1" d="M135.1,127c1.2-2.9,2.5-5.8,4.1-8.9c13.6,5.4,26.2,4.3,37.6-4.7c11.4-8.9,15.7-21,13.4-35.1
	c-1.9-10.9-8.1-18.8-17.3-24.8c1.7-2.7,3.3-5.4,5-8.3c13.2,7.6,21,19.2,22.7,34.3c2.7,24.8-13,46.2-37.4,51.2
	C153.6,132.4,144.2,131.3,135.1,127z"/>
<path class="st1" d="M395.3,52.5c0.4-1.2,1-2.1,1.4-3.3c0.8-1.7,1.4-3.7,2.1-5.8c12.6,5.8,21,15.7,24.6,29.1
	c6.6,23.5-6,47.7-29.1,56.1c-7.2,2.5-14.6,3.5-22.3,2.1c0.6-2.1,1.6-4.3,2.3-6.4c0.4-1,0.6-1.7,1.2-2.9c4.3-0.6,8.3-0.4,12-1.4
	c19.4-5.2,30.8-24.1,26.4-43.3C411.6,65.7,405,57.9,395.3,52.5z"/>
<path class="st1" d="M310.9,336.3c2.5,1.6,4.9,3.3,7.4,4.9c0.2-0.2,0.4-0.4,0.6-0.6c0-3.9,0-7.8,0.2-12c1.7-2.3,3.3-4.5,4.7-6.8
	c1.4-2.3,1.9-5.4,5-6.4c0,1,0.2,1.7,0.2,2.7c0,33.2,0,66.3,0,99.5c0,1,0,1.9-0.2,2.9c-0.4,2.5-2.5,4.3-5,4.3s-4.7-1.7-5-4.3
	c-0.2-0.8,0-1.7,0-2.5c0-21.3,0-42.9,0-64.2c0-1.9-0.6-2.7-2.5-3.3c-3.5-1.2-6.6-3.1-10.1-5.2C306.6,341.6,308.4,338.6,310.9,336.3z
	"/>
<path class="st1" d="M254.4,257.2c-2.1,1.6-4.5,2.9-5.2,5.6c-0.2,0.6-1.4,0.8-2.3,1c-4.5-10.9-8.7-21.7-13.2-32.6
	c-6.8-17.5-13.4-34.9-20.6-52.2c-1.7-4.3-5-8-7.8-12.2c1.4-2.5,3.7-4.3,3.7-7.2c0-0.4,1-1,1.6-1.4c5,4.9,9.3,10.5,11.8,16.9
	c10.1,25.8,20.2,51.6,30.3,77.4C253.3,253.9,253.9,255.4,254.4,257.2z"/>
<path class="st1" d="M438,318.9c-0.6-1-1-1.9-1.7-3.5c-0.4,0.6-1.4,1.2-1.6,2.1c-0.4,1.7-0.6,3.5-0.6,5c0,2.3-1,4.1-3.3,5
	c-1.7,0.8-2.5,1.6-1.7,3.5c0.2,0.4-0.6,1.2-1,1.9c-0.2-2.3-0.4-4.7-0.4-7c0-32.8,0-65.8,0-98.6c0-1,0-1.9,0-2.9
	c0.4-2.7,2.3-4.3,4.9-4.5c2.7,0,4.7,1.7,5,4.5c0,0.4,0,0.8,0,1.2C438,256.6,438,287.6,438,318.9z"/>
<path class="st1" d="M328.9,315.4c-3.3,1.2-3.7,4.1-5.2,6.6c-1.4,2.3-2.9,4.3-4.7,6.6c-0.2-0.8-0.2-1.4-0.2-2.1
	c0-33.4,0-66.7,0-100.1c0-3.9,1.7-6,5-6c2.7,0,4.7,1.6,5,4.3c0,0.6,0.2,1,0.2,1.6C329.1,255.6,329.1,285.3,328.9,315.4z"/>
<path class="st1" d="M374.7,401.5c0-12.6,0-25,0-37.4c0-1,0-1.9,0.4-2.9c0.6-1.9,2.1-2.9,4.3-2.7c1.9,0.2,3.3,1.4,3.7,3.5
	c0,0.4,0,0.8,0,1.2c0,35.1,0,70.2,0,105.5c0,3.9-3.3,6.2-6.2,4.1c-1.2-0.8-1.9-2.7-1.9-4.3c-0.2-4.1,0-8.1,0-12.2
	C374.7,438.2,374.7,419.9,374.7,401.5z"/>
<path class="st1" d="M310.9,336.1c-2.5,2.5-4.3,5.2-4.5,9.1c-7.6-5.4-11.1-13.2-11.1-22.5c-0.2-21,0-41.9,0-63.2
	c0.8-1.4,1.7-2.5,2.3-3.7c0.8-1.4,1.2-2.7,1.9-4.1c0.6-1.4,2.1-2.3,2.1-3.7c0.2-2.3,1.4-2.7,3.3-2.7c0.2,4.7,0.4,9.5,0.4,14.2
	c0,20.8,0,41.3,0,62.1C305.3,327.2,306.8,332,310.9,336.1z"/>
<path class="st1" d="M430.6,150.7c16.3,9.7,26.4,24.1,30.3,42.7c1.7,8.3,1.6,16.9,1.4,25.6c-0.8,1.4-1.6,2.1-1.9,3.3
	c-0.6,1.2-1,2.3-1.6,3.5c-0.6,1-1.6,1.7-1.7,2.7c-0.4,2.9-2.1,4.7-4.5,6.2c0-8.9,0-17.7-0.2-26.6c-0.2-12-3.1-23.3-10.1-33.4
	c-3.9-5.4-8.7-10.1-14.4-14.2C430.6,157.6,430.4,154.1,430.6,150.7z"/>
<path class="st1" d="M210.4,158c-0.4,0.6-1.6,1-1.6,1.6c0,2.9-2.5,4.7-3.9,7.2c-9.9-10.1-21.7-16.5-35.7-18
	c-11.6-1.4-23.3-1.6-35.1,0.8c-0.2-1.4-0.4-2.7-0.2-4.1c0.2-1,0.8-2.5,1.4-2.7c1.9-0.6,2.7-1.9,3.1-3.9c8-0.4,15.9-1,23.9-0.8
	c13.8,0.4,26.8,3.7,38.2,11.8C204,152,207.1,155.1,210.4,158z"/>
<path class="st1" d="M78.3,389.5c0-0.8,0-1.7,0.4-1.9c2.7-1.7,3.1-4.7,3.7-7.6c11.1-0.2,22.1-0.4,33.4-0.2c2.9,0,4.9,1.9,4.9,4.9
	c0,11.3,0,22.3,0,33.6c0,3.1-2.1,5-5,5s-5-1.9-5-5.2c0-8.3,0-16.5,0-24.8c0-1,0-2.1,0-3.5C99.6,389.5,89.1,389.5,78.3,389.5z"/>
<path class="st1" d="M430.4,150.7c0,3.5,0.2,7-2.7,9.9c-20.6-12.4-42.5-14.7-66-11.4c0.8-2.1,1.9-4.3,2.7-6.4
	c0.4-1.2,0.4-2.5,0.6-4.1c20.4-2.3,40.4-0.4,59.2,8.5C426.3,148.1,428.3,149.3,430.4,150.7z"/>
<path class="st1" d="M452.5,234.9c2.3-1.7,4.1-3.5,4.5-6.4c0.2-1,1.2-1.7,1.7-2.7c0.6-1.2,1-2.3,1.6-3.5c0.6-1,1.2-1.9,1.9-2.9
	c0.2,20.6,0.2,41.3,0.2,62.3c-0.6,1.2-1.2,1.9-1.6,2.9c-2.7,4.7-5.2,9.3-8.1,14.2c-0.2-5.2-0.2-10.7-0.2-16.1
	C452.3,266.7,452.3,250.8,452.5,234.9z"/>
<path class="st1" d="M226.1,303.3c-1.4,1.2-2.9,2.1-4.1,3.5c-0.8,0.8-0.6,2.1-1,3.3s-0.8,2.5-1.2,3.9c-6.4-15.5-12.4-31.2-18.6-46.9
	c-1.2-2.9-2.3-5.6-3.3-8.5c-1.2-3.1,0-5.8,2.5-6.8c2.7-1.2,5.6,0,6.8,3.1c5.4,14,10.9,27.9,16.5,41.9
	C224.4,298.9,225.3,301,226.1,303.3z"/>
<path class="st2" d="M64.3,379.6L64.3,379.6L64.3,379.6z"/>
<path class="st0" d="M395.1,52.5c9.9,5.4,16.5,13.4,19,24.3c4.5,19.4-7,38.2-26.4,43.3c-3.7,1-8,0.8-12,1.2
	c-7.6-1-14.4-3.7-20.2-8.5c-11.6-9.7-15.7-25-11.3-39c4.5-14.2,17.5-24.1,32.4-24.8C383.1,48.2,389.3,49.6,395.1,52.5z"/>
<path class="st0" d="M172.6,53.5c9.3,6,15.7,14,17.5,24.8c2.5,14.2-1.9,26.2-13.4,35.1c-11.4,8.9-24.1,10.1-37.6,4.5
	c-8.1-4.3-14.4-10.3-18-18.6c-10.1-22.9,6-49.1,31-50.6C159.6,48.2,166.2,50,172.6,53.5z"/>
</svg>
